<svg width="145" height="114" viewBox="0 0 145 114" fill="none" xmlns="http://www.w3.org/2000/svg">
<path fill-rule="evenodd" clip-rule="evenodd" d="M72.5926 16.5769C61.6389 16.5769 51.7172 20.956 44.4489 28.0452C38.4505 30.7702 26.6787 36.5934 23.7457 41.5427C21.0715 46.0552 28.498 46.1318 33.6644 45.6969C32.5636 49.2659 32.2561 52.601 32.2561 56.9154C32.2561 79.196 50.3159 97.2569 72.5926 97.2569C94.8693 97.2569 112.929 79.196 112.929 56.9154C112.929 34.6357 94.8693 16.5769 72.5926 16.5769Z" fill="#FFFFFE"/>
<mask id="mask0_1_1187" style="mask-type:alpha" maskUnits="userSpaceOnUse" x="0" y="0" width="145" height="114">
<path fill-rule="evenodd" clip-rule="evenodd" d="M0 113.531V0H145V113.531H0Z" fill="white"/>
</mask>
<g mask="url(#mask0_1_1187)">
<path fill-rule="evenodd" clip-rule="evenodd" d="M72.5607 0.746438C56.7939 0.746438 42.5678 7.27528 32.3854 17.7553L28.2243 14.2351C28.2243 14.2351 28.3686 29.0494 25.2296 39.4975C25.2296 39.4975 34.2426 34.1291 49.0778 30.583L45.2262 27.3226C52.4178 20.6644 62.02 16.5769 72.5916 16.5769C94.8682 16.5769 112.928 34.6357 112.928 56.9154C112.928 79.196 94.8682 97.2569 72.5916 97.2569C50.3149 97.2569 32.2551 79.196 32.2551 56.9154C32.2551 52.3541 32.5934 48.8897 33.8564 45.0838L18.5903 43.6785C17.2477 48.4866 16.5132 51.5589 16.5132 56.7949C16.5132 87.7492 41.6064 112.844 72.5607 112.844C103.516 112.844 128.609 87.7492 128.609 56.7949C128.609 25.8397 103.516 0.746438 72.5607 0.746438Z" fill="#1976D2"/>
<path fill-rule="evenodd" clip-rule="evenodd" d="M32.9209 18.2748C43.4357 7.45343 57.5135 1.49288 72.5607 1.49288C103.054 1.49288 127.863 26.3015 127.863 56.7949C127.863 87.2894 103.054 112.098 72.5607 112.098C42.0682 112.098 17.2596 87.2894 17.2596 56.7949C17.2596 51.9869 17.8796 49.0788 19.1496 44.4787C20.2344 44.5793 31.3951 45.6073 32.901 45.7457C31.7863 49.4898 31.5086 52.9563 31.5086 56.9154C31.5086 79.5713 49.9376 98.0033 72.5915 98.0033C95.2454 98.0033 113.674 79.5713 113.674 56.9154C113.674 34.2615 95.2454 15.8305 72.5915 15.8305C62.2409 15.8305 52.3422 19.7169 44.7186 26.7742L44.1005 27.3465C44.1005 27.3465 46.3826 29.2793 47.5043 30.2287C36.9675 32.898 29.4723 36.4132 26.4169 38.0046C28.5258 29.8197 28.8971 19.697 28.9588 15.8344C30.177 16.8645 32.4342 18.7754 32.4342 18.7754L32.9209 18.2748ZM32.3615 16.757C31.5813 16.0972 27.4619 12.6118 27.4619 12.6118L27.4778 14.242C27.4788 14.3893 27.5833 29.0673 24.515 39.2835L23.9636 41.1198L25.6117 40.1394C25.7013 40.0857 34.7133 34.784 49.2509 31.3096L50.6851 30.9672C50.6851 30.9672 47.2992 28.0999 46.3826 27.3236C53.639 20.8843 62.9008 17.3233 72.5915 17.3233C94.4223 17.3233 112.182 35.0846 112.182 56.9154C112.182 78.7482 94.4223 96.5104 72.5915 96.5104C50.7607 96.5104 33.0015 78.7482 33.0015 56.9154C33.0015 52.7831 33.2672 49.2291 34.565 45.3197L34.8606 44.427L18.0389 42.8774L17.8717 43.4775C16.5619 48.1641 15.7667 51.3997 15.7667 56.795C15.7667 88.1125 41.2451 113.591 72.5607 113.591C103.878 113.591 129.356 88.1125 129.356 56.795C129.356 25.4784 103.878 0 72.5607 0C57.3413 0 43.1053 5.96155 32.3615 16.757Z" fill="#212121"/>
<path fill-rule="evenodd" clip-rule="evenodd" d="M142.182 42.0394H2.75388C1.5357 42.0394 0.541443 43.0068 0.541443 44.2011V66.8321C0.541443 68.0273 1.5357 68.9947 2.75388 68.9947H142.182C143.407 68.9947 144.398 68.0273 144.398 66.8321V44.2011C144.398 43.0068 143.407 42.0394 142.182 42.0394Z" fill="#FFFFFE"/>
<path fill-rule="evenodd" clip-rule="evenodd" d="M1.14357 66.8321V44.2011C1.14357 43.3412 1.86612 42.6415 2.75388 42.6415H142.182C143.072 42.6415 143.797 43.3412 143.797 44.2011V66.8321C143.797 67.6929 143.072 68.3936 142.182 68.3936H2.75388C1.86612 68.3936 1.14357 67.6929 1.14357 66.8321ZM2.75388 41.4382C1.20228 41.4382 -0.0596924 42.6773 -0.0596924 44.2011V66.8321C-0.0596924 68.3568 1.20228 69.5969 2.75388 69.5969H142.182C143.736 69.5969 145 68.3568 145 66.8321V44.2011C145 42.6773 143.736 41.4382 142.182 41.4382H2.75388Z" fill="#1A1919"/>
</g>
<path fill-rule="evenodd" clip-rule="evenodd" d="M120.45 66.9326H142.34V44.0378H120.45V66.9326Z" fill="#FFFFFE"/>
<path fill-rule="evenodd" clip-rule="evenodd" d="M142.037 44.3404C142.037 44.9206 142.037 66.0498 142.037 66.63C141.458 66.63 121.332 66.63 120.753 66.63C120.753 66.0498 120.753 44.9206 120.753 44.3404C121.332 44.3404 141.458 44.3404 142.037 44.3404ZM120.148 67.2351H142.642V43.7363H120.148V67.2351Z" fill="#1A1919"/>
<path fill-rule="evenodd" clip-rule="evenodd" d="M26.2667 66.9644H48.1582V44.0687H26.2667V66.9644Z" fill="#1A1919"/>
<path fill-rule="evenodd" clip-rule="evenodd" d="M47.8566 44.3712C47.8566 44.9515 47.8566 66.0816 47.8566 66.6619C47.2764 66.6619 27.1485 66.6619 26.5692 66.6619C26.5692 66.0816 26.5692 44.9515 26.5692 44.3712C27.1485 44.3712 47.2764 44.3712 47.8566 44.3712ZM25.9641 67.267H48.4607V43.7671H25.9641V67.267Z" fill="#1A1919"/>
<path fill-rule="evenodd" clip-rule="evenodd" d="M49.7366 66.9644H71.6282V44.0687H49.7366V66.9644Z" fill="#1A1919"/>
<path fill-rule="evenodd" clip-rule="evenodd" d="M71.3266 44.3712C71.3266 44.9515 71.3266 66.0816 71.3266 66.6619C70.7474 66.6619 50.6184 66.6619 50.0392 66.6619C50.0392 66.0816 50.0392 44.9515 50.0392 44.3712C50.6184 44.3712 70.7474 44.3712 71.3266 44.3712ZM49.4341 67.267H71.9307V43.7671H49.4341V67.267Z" fill="#1A1919"/>
<path fill-rule="evenodd" clip-rule="evenodd" d="M73.3608 66.9644H95.2484V44.0687H73.3608V66.9644Z" fill="#1A1919"/>
<path fill-rule="evenodd" clip-rule="evenodd" d="M94.9459 44.3712C94.9459 44.9515 94.9459 66.0816 94.9459 66.6619C94.3667 66.6619 74.2417 66.6619 73.6625 66.6619C73.6625 66.0816 73.6625 44.9515 73.6625 44.3712C74.2417 44.3712 94.3667 44.3712 94.9459 44.3712ZM73.0583 67.267H95.551V43.7671H73.0583V67.267Z" fill="#1A1919"/>
<path fill-rule="evenodd" clip-rule="evenodd" d="M96.9861 66.9644H118.872V44.0687H96.9861V66.9644Z" fill="#1A1919"/>
<path fill-rule="evenodd" clip-rule="evenodd" d="M118.569 44.3712C118.569 44.9515 118.569 66.0816 118.569 66.6619C117.99 66.6619 97.8679 66.6619 97.2877 66.6619C97.2877 66.0816 97.2877 44.9515 97.2877 44.3712C97.8679 44.3712 117.99 44.3712 118.569 44.3712ZM96.6836 67.267H119.174V43.7671H96.6836V67.267Z" fill="#1A1919"/>
<path fill-rule="evenodd" clip-rule="evenodd" d="M2.64734 66.9644H24.5349V44.0687H2.64734V66.9644Z" fill="#1A1919"/>
<path fill-rule="evenodd" clip-rule="evenodd" d="M24.2323 44.3712C24.2323 44.9515 24.2323 66.0816 24.2323 66.6619C23.6531 66.6619 3.52814 66.6619 2.9489 66.6619C2.9489 66.0816 2.9489 44.9515 2.9489 44.3712C3.52814 44.3712 23.6531 44.3712 24.2323 44.3712ZM2.34479 67.267H24.8374V43.7671H2.34479V67.267Z" fill="#1A1919"/>
<path fill-rule="evenodd" clip-rule="evenodd" d="M14.1057 63.7697C9.44296 63.7697 6.95483 60.3191 6.95483 55.6643C6.95483 50.6085 9.91371 47.564 14.1296 47.564C17.9882 47.564 19.5139 49.2241 20.5888 52.181L16.6386 53.7336C16.0793 52.2705 15.5428 51.3489 14.1057 51.3489C12.2884 51.3489 11.5031 53.1712 11.5031 55.6643C11.5031 58.0729 12.2675 59.9827 14.1505 59.9827C15.517 59.9827 16.1022 59.2393 16.9561 57.7544L20.6316 59.715C19.5816 61.7732 17.8309 63.7697 14.1057 63.7697Z" fill="#FFFFFE"/>
<path fill-rule="evenodd" clip-rule="evenodd" d="M45.1883 63.3427L39.4905 47.6406H35.0975L29.3987 63.3427H34.0634L34.9154 60.564H39.6249L40.4758 63.3427H45.1883ZM38.5729 57.1224H35.9703L36.2619 56.0913C36.8223 54.0948 37.0711 53.226 37.2731 52.171C37.4731 53.226 37.722 54.0739 38.2833 56.0913L38.5729 57.1224Z" fill="#FFFFFE"/>
<path fill-rule="evenodd" clip-rule="evenodd" d="M67.5268 63.4183L64.3857 57.4249C66.1095 56.6417 67.2123 55.1876 67.2123 52.8319C67.2123 49.1076 64.7689 47.7153 61.0855 47.7153H54.062V63.4183H58.3466V58.1156H60.0972L62.656 63.4183H67.5268ZM62.8829 52.9453C62.8829 54.07 62.3216 54.696 60.9044 54.696H58.3466V51.2574H60.974C62.3445 51.2574 62.8829 51.959 62.8829 52.9453Z" fill="#FFFFFE"/>
<path fill-rule="evenodd" clip-rule="evenodd" d="M82.4127 51.4126V53.6012H87.3213V57.2776H82.4127V63.4183H78.0824V47.7153H90.5091V51.4126H82.4127Z" fill="#FFFFFE"/>
<path fill-rule="evenodd" clip-rule="evenodd" d="M115.688 63.4661L109.99 47.765H105.591L99.8962 63.4661H104.559L105.413 60.6884H110.124L110.975 63.4661H115.688ZM109.07 57.2458H106.47L106.761 56.2167C107.324 54.2222 107.567 53.3474 107.769 52.2944C107.975 53.3474 108.218 54.1983 108.779 56.2167L109.07 57.2458Z" fill="#FFFFFE"/>
<path fill-rule="evenodd" clip-rule="evenodd" d="M133.59 67.1495L132.899 66.0866C132.285 65.1023 131.672 64.0523 131.254 63.2064C130.861 64.0324 130.224 65.1023 129.585 66.0866L128.816 67.1495H123.485L128.651 59.9927L123.228 52.2695H128.753L129.709 53.7863C130.319 54.7676 130.984 55.8176 131.351 56.6437C131.746 55.8176 132.409 54.7676 133.023 53.7863L133.982 52.2695H139.379L133.956 59.9031L139.045 67.1495H133.59Z" fill="#1A1919"/>
<path fill-rule="evenodd" clip-rule="evenodd" d="M27.9835 85.7717L28.7239 84.8978C28.282 84.864 27.8581 84.6958 27.453 84.3942C27.0469 84.0927 26.6976 83.6866 26.404 83.1741C25.7849 82.0952 25.6795 81.0054 26.0865 79.9017C26.4946 78.7989 27.3535 77.8724 28.6622 77.121C29.9869 76.3606 31.2419 76.1008 32.4253 76.3407C33.6086 76.5805 34.5342 77.2832 35.204 78.4496C35.7146 79.3404 35.8977 80.2112 35.7524 81.0602C35.6081 81.9111 35.1453 82.6804 34.364 83.3691L33.0642 81.6593C33.4802 81.2731 33.741 80.872 33.8465 80.455C33.952 80.037 33.8933 79.6359 33.6713 79.2488C33.3498 78.6875 32.8662 78.4028 32.2202 78.3939C31.5743 78.3839 30.7791 78.6487 29.8356 79.1901C28.907 79.7225 28.296 80.2729 28.0014 80.8402C27.7078 81.4075 27.7307 81.9877 28.073 82.5829C28.3149 83.0039 28.6493 83.2835 29.0752 83.4179C29.5032 83.5523 29.9242 83.5115 30.3402 83.2925L30.6209 83.1492L29.6386 81.4374L31.0548 80.6252L33.0901 84.1723L28.5577 86.7719L27.9835 85.7717Z" fill="#FFFFFE"/>
<path fill-rule="evenodd" clip-rule="evenodd" d="M39.5652 85.1894L41.1805 86.7848L36.7914 91.2226C36.3416 91.6785 36.1067 92.1034 36.0878 92.4996C36.0689 92.8957 36.264 93.2958 36.674 93.7008C37.0542 94.077 37.4553 94.2492 37.8783 94.2174C38.3012 94.1865 38.7302 93.9506 39.1641 93.5127L43.5243 89.1028L44.8072 90.3717L40.3276 94.9011C39.5125 95.7262 38.6784 96.1302 37.8255 96.1143C36.9736 96.0994 36.1117 95.6605 35.2408 94.7996C34.7144 94.2791 34.3431 93.7406 34.1272 93.1853C33.9112 92.6299 33.8525 92.0696 33.953 91.5033C34.0027 91.2336 34.1232 90.9509 34.3123 90.6554C34.5024 90.3608 34.7741 90.0343 35.1284 89.675L39.5652 85.1894Z" fill="#FFFFFE"/>
<path fill-rule="evenodd" clip-rule="evenodd" d="M47.3769 99.0533L49.241 100.114L50.068 96.4676L47.3769 99.0533ZM42.8077 101L50.2522 94.1059L52.388 95.3201L50.283 105.25L48.2716 104.106L48.812 101.748L46.1786 100.252L44.4419 101.93L42.8077 101Z" fill="#FFFFFE"/>
<path fill-rule="evenodd" clip-rule="evenodd" d="M61.8428 100.666L60.2215 100.255L59.6025 102.697L61.2098 103.105C61.7194 103.234 62.1394 103.225 62.4688 103.078C62.7983 102.932 63.0132 102.66 63.1137 102.263C63.2133 101.87 63.1546 101.538 62.9386 101.268C62.7216 100.997 62.3564 100.796 61.8428 100.666ZM56.0743 107.497L58.453 98.1217L62.5146 99.1518C63.694 99.4514 64.523 99.9012 65.0027 100.502C65.4824 101.104 65.6078 101.853 65.3809 102.75C65.2257 103.361 64.954 103.84 64.5658 104.19C64.1777 104.537 63.68 104.744 63.0719 104.811L63.7855 109.454L61.4547 108.861L60.8655 104.685L59.2054 104.264L58.245 108.047L56.0743 107.497Z" fill="#FFFFFE"/>
<path fill-rule="evenodd" clip-rule="evenodd" d="M72.2293 106.086L74.373 106.047L73.2285 102.488L72.2293 106.086ZM69.2903 110.088L72.1825 100.363L74.6398 100.319L77.8873 109.935L75.5743 109.976L74.8378 107.672L71.8093 107.726L71.1693 110.055L69.2903 110.088Z" fill="#FFFFFE"/>
<path fill-rule="evenodd" clip-rule="evenodd" d="M84.0399 108.938L81.2761 99.6693L83.4916 99.0075L88.7982 103.924L86.954 97.9754L88.7425 97.442L91.5063 106.712L89.6591 107.262L83.7623 101.789L85.8125 108.409L84.0399 108.938Z" fill="#FFFFFE"/>
<path fill-rule="evenodd" clip-rule="evenodd" d="M96.8498 95.0593L100.943 101.833L99.0154 102.999L94.922 96.2258L93.0051 97.3832L92.0955 95.8794L97.859 92.397L98.7666 93.9009L96.8498 95.0593Z" fill="#FFFFFE"/>
<path fill-rule="evenodd" clip-rule="evenodd" d="M107.626 96.9364L100.829 90.0542L105.708 85.2362L106.933 86.4753L103.601 89.7636L105.077 91.2575L107.755 88.6131L108.901 89.7746L106.225 92.4189L107.928 94.1457L111.303 90.8126L112.549 92.0736L107.626 96.9364Z" fill="#FFFFFE"/>
<path fill-rule="evenodd" clip-rule="evenodd" d="M116.551 86.8834L108.266 81.8942L111.802 76.0192L113.295 76.9169L110.881 80.9268L112.678 82.0096L114.621 78.786L116.018 79.629L114.079 82.8526L116.157 84.1046L118.602 80.041L120.122 80.9556L116.551 86.8834Z" fill="#FFFFFE"/>
<path fill-rule="evenodd" clip-rule="evenodd" d="M46.8633 19.7368C46.7767 20.0672 46.5369 20.3807 46.1448 20.6783L44.7365 21.7462L43.2337 19.7637L44.5872 18.7366C45.0002 18.4231 45.3854 18.2698 45.7397 18.2768C46.094 18.2837 46.3956 18.4519 46.6444 18.7804C46.8773 19.0879 46.9499 19.4054 46.8633 19.7368ZM40.9028 16.6903L42.2892 15.6394C42.6325 15.3796 42.953 15.2552 43.2516 15.2651C43.5491 15.2771 43.8049 15.4224 44.0169 15.7011C44.2418 15.9986 44.3195 16.3002 44.2498 16.6048C44.1791 16.9103 43.9652 17.1979 43.6089 17.4686L42.2653 18.4878L40.9028 16.6903ZM48.5752 17.6717C48.18 17.1511 47.7342 16.8257 47.2375 16.6953C46.7409 16.5649 46.1876 16.6296 45.5765 16.8874C45.9139 16.4555 46.084 16.0046 46.086 15.5359C46.089 15.0671 45.9248 14.6143 45.5924 14.1763C45.1127 13.5434 44.5334 13.2189 43.8557 13.201C43.1769 13.1821 42.4424 13.4747 41.6492 14.0758L38.2305 16.6685L44.0756 24.3747L47.4346 21.8278C48.3174 21.158 48.8568 20.4673 49.0519 19.7547C49.2479 19.0421 49.0887 18.3484 48.5752 17.6717Z" fill="#FFFFFE"/>
<path fill-rule="evenodd" clip-rule="evenodd" d="M49.9337 8.91744L52.0407 8.07148L54.3666 13.8638C54.6044 14.457 54.902 14.8422 55.2583 15.0163C55.6136 15.1915 56.0585 15.1716 56.5929 14.9576C57.0886 14.7586 57.407 14.458 57.5464 14.0579C57.6857 13.6568 57.6409 13.1701 57.411 12.5969L55.1001 6.84235L56.7731 6.17055L59.1477 12.0833C59.5797 13.1582 59.6185 14.0838 59.2652 14.8601C58.9119 15.6354 58.1674 16.2524 57.0299 16.7093C56.3441 16.9839 55.7022 17.1103 55.107 17.0884C54.5119 17.0656 53.9734 16.8964 53.4947 16.5789C53.2668 16.4256 53.0548 16.2037 52.8598 15.9121C52.6647 15.6205 52.4726 15.2403 52.2845 14.7725L49.9337 8.91744Z" fill="#FFFFFE"/>
<path fill-rule="evenodd" clip-rule="evenodd" d="M66.6987 13.8698L66.1941 9.77634L62.3206 4.66474L64.7709 4.36218L67.2739 7.83262L68.8185 3.86356L70.81 3.61773L68.4115 9.46184L68.9211 13.5961L66.6987 13.8698Z" fill="#FFFFFE"/>
<path fill-rule="evenodd" clip-rule="evenodd" d="M77.8077 7.8356L79.4797 8.04759C79.9246 8.10432 80.2789 8.04759 80.5427 7.8794C80.8054 7.7112 80.9607 7.44149 81.0074 7.07026C81.0522 6.72192 80.9706 6.44026 80.7666 6.2233C80.5606 6.00733 80.2441 5.87098 79.8181 5.81724L78.0914 5.59828L77.8077 7.8356ZM77.2932 11.8932L79.0458 12.1152C79.5345 12.1769 79.9246 12.1202 80.2182 11.945C80.5118 11.7698 80.683 11.4912 80.7318 11.109C80.7825 10.6999 80.685 10.3685 80.4362 10.1157C80.1893 9.86293 79.8062 9.70369 79.2906 9.638L77.6057 9.42402L77.2932 11.8932ZM74.9812 13.3085L76.1984 3.71228L80.4531 4.25171C81.4414 4.37711 82.1719 4.68365 82.6426 5.17132C83.1144 5.65899 83.3015 6.29595 83.2 7.08419C83.1323 7.62859 82.9323 8.0675 82.6018 8.40091C82.2734 8.73332 81.8355 8.93635 81.2911 9.00901C81.9091 9.25284 82.349 9.59421 82.6128 10.0351C82.8775 10.475 82.9691 11.0204 82.8855 11.6683C82.778 12.5103 82.4068 13.1174 81.7698 13.4896C81.1299 13.8618 80.263 13.9783 79.1632 13.839L74.9812 13.3085Z" fill="#FFFFFE"/>
<path fill-rule="evenodd" clip-rule="evenodd" d="M89.91 12.5441L91.8915 13.3662L92.2627 9.64497L89.91 12.5441ZM85.6165 15.0402L92.1513 7.27926L94.4224 8.22077L93.5586 18.3335L91.4208 17.4477L91.6676 15.0412L88.8699 13.8808L87.3522 15.7598L85.6165 15.0402Z" fill="#FFFFFE"/>
<path fill-rule="evenodd" clip-rule="evenodd" d="M104.781 18.8301C105.136 18.2957 105.307 17.7931 105.293 17.3233C105.281 16.8536 105.087 16.4744 104.716 16.1868C104.219 15.8026 103.669 15.7329 103.066 15.9768C102.464 16.2216 101.834 16.769 101.177 17.6179C100.518 18.4718 100.149 19.2123 100.07 19.8403C99.9928 20.4673 100.207 20.9749 100.708 21.364C101.074 21.6447 101.471 21.7452 101.9 21.6646C102.33 21.584 102.778 21.3252 103.247 20.8893L104.755 22.3215C103.947 23.0988 103.095 23.5247 102.197 23.6004C101.3 23.677 100.435 23.3924 99.6046 22.7494C98.5735 21.9542 98.0341 20.9659 97.9814 19.7856C97.9286 18.6042 98.3735 17.4039 99.317 16.1848C100.254 14.9715 101.306 14.242 102.472 13.9932C103.637 13.7454 104.732 14.0171 105.758 14.8103C106.608 15.4672 107.104 16.2475 107.243 17.1502C107.385 18.0538 107.158 18.9963 106.565 19.9787L104.781 18.8301Z" fill="#FFFFFE"/>
<path fill-rule="evenodd" clip-rule="evenodd" d="M105.737 28.1089L113.495 22.3304L114.748 24.0134L111.036 26.7792L116.706 26.6409L117.985 28.3577L113.75 28.4034L110.634 34.6815L109.19 32.7407L111.452 28.292L109.028 28.2761L106.992 29.7928L105.737 28.1089Z" fill="#FFFFFE"/>
<path fill-rule="evenodd" clip-rule="evenodd" d="M115.603 106.911H115.114V107.906H115.617C115.896 107.906 116.094 107.868 116.211 107.794C116.329 107.718 116.389 107.595 116.389 107.424C116.389 107.244 116.326 107.113 116.202 107.032C116.079 106.952 115.879 106.911 115.603 106.911ZM115.692 106.599C116.095 106.599 116.396 106.665 116.592 106.794C116.788 106.924 116.886 107.121 116.886 107.386C116.886 107.589 116.825 107.757 116.705 107.892C116.585 108.027 116.421 108.113 116.215 108.149L116.855 109.454H116.321L115.722 108.217H115.114V109.454H114.631V106.599H115.692ZM117.819 108.082C117.819 107.781 117.765 107.496 117.657 107.227C117.548 106.959 117.393 106.721 117.19 106.515C116.977 106.305 116.737 106.143 116.472 106.034C116.206 105.924 115.922 105.869 115.619 105.869C115.322 105.869 115.042 105.922 114.783 106.029C114.522 106.135 114.292 106.291 114.091 106.495C113.879 106.71 113.715 106.953 113.603 107.222C113.49 107.492 113.434 107.774 113.434 108.068C113.434 108.357 113.489 108.633 113.6 108.898C113.71 109.164 113.871 109.403 114.078 109.616C114.284 109.825 114.519 109.984 114.783 110.096C115.047 110.206 115.324 110.262 115.613 110.262C115.908 110.262 116.191 110.206 116.458 110.097C116.727 109.987 116.968 109.827 117.182 109.616C117.388 109.412 117.545 109.178 117.655 108.916C117.765 108.652 117.819 108.375 117.819 108.082ZM115.622 105.565C115.963 105.565 116.285 105.629 116.589 105.754C116.892 105.881 117.164 106.063 117.405 106.304C117.637 106.535 117.814 106.802 117.937 107.104C118.061 107.407 118.122 107.728 118.122 108.065C118.122 108.408 118.061 108.728 117.937 109.028C117.814 109.327 117.634 109.591 117.399 109.821C117.151 110.061 116.875 110.245 116.571 110.372C116.265 110.501 115.95 110.565 115.622 110.565C115.294 110.565 114.979 110.502 114.676 110.374C114.373 110.247 114.102 110.063 113.862 109.821C113.624 109.584 113.443 109.316 113.317 109.014C113.193 108.712 113.13 108.397 113.13 108.065C113.13 107.732 113.195 107.412 113.324 107.106C113.454 106.8 113.64 106.526 113.882 106.283C114.111 106.05 114.373 105.872 114.671 105.749C114.967 105.627 115.286 105.565 115.622 105.565Z" fill="#1A1919"/>
</svg>
