<svg width="40" height="28" viewBox="0 0 40 28" fill="none" xmlns="http://www.w3.org/2000/svg">
<path d="M34.3688 5.45453L34.3311 5.48742H34.3295L34.3111 5.50266L29.3418 9.79461C29.1374 9.97094 28.8375 9.97734 28.6259 9.80984L26.4431 8.07836L25.6271 8.09438L28.5514 12.8063L34.679 6.46305L34.683 6.4582L34.6862 6.45422C34.6918 6.44938 34.6959 6.44383 34.7007 6.43898L34.7103 6.42852L34.72 6.41891L36.3417 4.73867L36.3938 4.68492L36.3954 4.68328L39.1081 1.87359L38.8443 1.58984L36.0691 3.98594V3.98672L36.0514 4.00195L36.045 4.0068L36.0442 4.00758L34.3704 5.45289L34.3688 5.45453Z" fill="white"/>
<path d="M24.6194 6.99063L26.6234 6.95211C26.7533 6.95055 26.8807 6.99297 26.9834 7.07399L28.9593 8.64196L33.1718 5.005C30.8479 2.75961 27.122 2.59688 24.608 4.71805C23.3022 5.81946 22.5038 7.36344 22.3595 9.06446C22.2152 10.7663 22.7419 12.4224 23.8433 13.7275C26.1175 16.4234 30.1601 16.7665 32.8552 14.4923C34.7798 12.8681 35.5551 10.2413 34.8857 7.86203L28.8582 14.1043C28.7516 14.2149 28.6057 14.2759 28.4542 14.2759C28.4341 14.2759 28.4149 14.2751 28.3949 14.2727C28.2226 14.2542 28.0687 14.158 27.9773 14.0105L24.1527 7.84844C24.0469 7.67688 24.0404 7.46125 24.1366 7.28406C24.233 7.10688 24.4173 6.99461 24.6194 6.99063Z" fill="white"/>
<path d="M32.8786 18.4622C31.5936 19.0658 30.1899 19.3809 28.7486 19.3809C28.4687 19.3809 28.1882 19.3696 27.906 19.3457C26.6169 19.2358 25.3865 18.8807 24.2698 18.3075C23.9331 18.136 23.6077 17.9436 23.2927 17.7312L22.5247 19.5678H13.2739L12.0194 16.5681H21.8713C21.6589 16.3589 21.4553 16.1384 21.2605 15.9075C21.133 15.7568 21.0112 15.6029 20.8941 15.4458C20.2127 14.5343 19.7029 13.5259 19.3783 12.4597C19.2652 12.0918 19.1754 11.7174 19.1073 11.3375H2.32047L7.43969 3.66504C7.85328 3.04137 8.49305 2.69824 9.23937 2.69824H21.8145C22.0101 2.50184 22.2162 2.31348 22.4302 2.1323C22.6643 1.93434 22.9063 1.74832 23.1557 1.5752H9.23937C8.1043 1.5752 7.13273 2.09707 6.505 3.04301L4.0207 6.76574H1.50687C0.697266 6.76574 0.0390625 7.42387 0.0390625 8.23355C0.0390625 9.04402 0.697187 9.70371 1.50687 9.70371H2.06078L0.803906 11.5875C0.735 11.6893 0.702109 11.8128 0.710937 11.9371L1.46844 22.9018V24.6742C1.46844 25.9761 2.5282 27.035 3.83164 27.035H7.01008C8.31351 27.035 9.37414 25.976 9.37414 24.6742V23.4357H26.4272V24.6742C26.4272 25.9761 27.4869 27.035 28.7888 27.035H31.9673C33.2707 27.035 34.3305 25.976 34.3305 24.6742V22.9018L34.5045 20.3895L33.464 19.1566L32.8786 18.4622ZM8.86664 17.1523C8.865 17.3343 8.77437 17.5034 8.62531 17.6068C8.52992 17.6725 8.41851 17.7071 8.30547 17.7071C8.24133 17.7071 8.1764 17.6958 8.11469 17.6734L3.61031 16.0413C3.38828 15.9611 3.24078 15.7503 3.24078 15.5138V13.8529C3.24078 13.6821 3.31852 13.5202 3.45242 13.4136C3.58625 13.3069 3.76102 13.2676 3.92773 13.3061L8.45859 14.3467C8.71586 14.406 8.89703 14.6361 8.89383 14.9006L8.86664 17.1523Z" fill="white"/>
<path d="M20.111 8.87346C20.0284 9.84581 20.1078 10.807 20.3394 11.7264C20.3442 11.7481 20.3498 11.7697 20.3562 11.7914C20.6768 13.025 21.2725 14.181 22.1182 15.1839C22.2424 15.3306 22.3699 15.4732 22.5021 15.6103C23.0264 16.1555 23.6117 16.6236 24.245 17.0076C24.2466 17.0076 24.2474 17.0084 24.2482 17.0092C24.2714 17.0245 24.2946 17.0381 24.3179 17.0517C24.3187 17.0517 24.3196 17.0525 24.3211 17.0534C25.429 17.7115 26.6796 18.1156 28.0006 18.227C29.6575 18.3681 31.2825 18.0386 32.7214 17.2874C32.7462 17.2746 32.771 17.2618 32.7951 17.2481C33.3298 16.9628 33.838 16.6189 34.3118 16.2189C37.2835 13.7121 38.1965 9.54534 36.6269 6.05979L35.7667 6.94963C36.2806 8.31479 36.3872 9.83229 36.0642 11.264C35.701 12.8721 34.8417 14.2853 33.5791 15.3507C32.1714 16.5379 30.4495 17.1183 28.7381 17.1183C26.5969 17.1183 24.471 16.2117 22.9856 14.4513C21.691 12.917 21.0714 10.9706 21.2413 8.96971C21.4112 6.96963 22.3499 5.15479 23.8842 3.8601C25.405 2.57674 27.3345 1.95541 29.3177 2.11018C31.1125 2.25049 32.7639 3.0112 34.0256 4.26737L34.8874 3.52424C31.753 0.350571 26.6074 0.0772109 23.1539 2.9912C21.3864 4.48127 20.3058 6.57034 20.111 8.87346Z" fill="white"/>
<path d="M39.7917 21.6617L35.5398 16.6211C35.378 16.7782 35.2104 16.9297 35.0356 17.0772C34.6693 17.3866 34.2845 17.6656 33.8845 17.9141L34.4465 18.581C34.4601 18.5955 34.4722 18.6098 34.4841 18.6251L38.1861 23.0148C38.4418 23.3178 38.8979 23.357 39.2025 23.1013L39.7051 22.6757C40.009 22.4192 40.0474 21.9647 39.7917 21.6617Z" fill="white"/>
</svg>
