<?xml version="1.0" encoding="UTF-8"?>
<svg width="180px" height="134px" viewBox="0 0 180 134" version="1.1" xmlns="http://www.w3.org/2000/svg" xmlns:xlink="http://www.w3.org/1999/xlink">
    <!-- Generator: Sketch 57.1 (83088) - https://sketch.com -->
    <title>one_owner_logo</title>
    <desc>Created with Sketch.</desc>
    <g id="VHR-facelift-Desktop" stroke="none" stroke-width="1" fill="none" fill-rule="evenodd">
        <g id="Final-Print-Version-Backgrounds-ON" transform="translate(-361.000000, -1007.000000)">
            <g id="one_owner_logo" transform="translate(361.000000, 1007.000000)">
                <path d="M0,101.251253 C0.0693390961,102.734059 1.30381587,103.88775 2.77567253,103.84528 L43.4855363,103.84528 L40.3451769,113.37714 L51.8260609,110.401838 L50.5091359,122.282621 L61.1323303,116.965205 L62.2871722,128.866413 L71.5866882,121.417945 L75.172776,132.815326 L82.7298991,123.603464 L88.5851499,134 L94.0824673,123.406019 L101.977263,132.345541 L105.137883,120.825608 L114.680524,127.920035 L115.430158,115.984785 L126.235696,120.927735 L124.500056,109.10142 L136.082242,111.668214 L133.198514,103.838472 L177.231081,103.838472 C178.700343,103.877164 179.930687,102.724531 180,101.244444 L0,101.251253 Z" id="Path" fill="#007FB2" fill-rule="nonzero"></path>
                <path d="M180,32.6853212 L180,32.6853212 C179.927139,31.2132388 178.697792,30.0687347 177.230977,30.1074005 L133.169743,30.1074005 L136.330482,20.5690938 L124.849167,23.5269186 L126.166141,11.6956193 L115.549302,16.9939248 L114.387663,5.13548944 L105.094552,12.5300515 L101.50833,1.18041633 L93.950923,10.3591709 L88.0954525,0 L82.6046826,10.555907 L74.7298514,1.64851246 L71.5420982,13.1202597 L61.9923458,6.0513297 L61.2494372,17.943685 L50.4434939,13.0184997 L52.1724448,24.802311 L40.5965781,22.2447422 L43.5074291,30.1074005 L2.76902296,30.1074005 C1.30220767,30.0687347 0.0728610207,31.2132388 0,32.6853212 L0,32.6853212 L0,101.244444 L180,101.244444 L180,32.6853212 Z" id="Path" fill="#007FB2" fill-rule="nonzero"></path>
                <path d="M175.054945,63.9571445 C175.046079,64.6413338 174.763153,65.2940049 174.268423,65.7715486 C173.773692,66.2490924 173.10769,66.5123821 172.41696,66.5037037 L6.58729943,66.5037037 C5.15152982,66.5183033 3.97451703,65.3792745 3.95604396,63.9571445 L3.95604396,37.2938899 C3.96314633,36.6097074 4.2443662,35.956346 4.73783041,35.4775566 C5.23129461,34.9987671 5.89657531,34.7337751 6.58729943,34.7407407 L172.41696,34.7407407 C173.856446,34.7260656 175.036472,35.8680786 175.054945,37.2938899 L175.054945,63.9571445 Z" id="Path" fill="#FFFFFF"></path>
                <path d="M6.34190472,33.7484871 C5.45586774,33.7358189 4.60139528,34.078693 3.96787915,34.7011119 C3.33436302,35.3235309 2.9741329,36.1740819 2.96703297,37.0642421 L2.96703297,64.1869822 C2.97591845,65.0759617 3.33693352,65.9247688 3.9702538,66.545723 C4.60357409,67.1666771 5.45702696,67.5086243 6.34190472,67.4959565 L172.669084,67.4959565 C173.553962,67.5086243 174.407415,67.1666771 175.040735,66.545723 C175.674055,65.9247688 176.035071,65.0759617 176.043956,64.1869822 L176.043956,37.0642421 C176.035059,36.1746549 175.674261,35.325164 175.041141,34.7031343 C174.408021,34.0811046 173.554591,33.737637 172.669084,33.7484871 L6.34190472,33.7484871 Z M4.41822782,64.1869822 L4.41822782,37.0642421 C4.4512585,36.0252247 5.30721376,35.2045682 6.34190472,35.2195884 L172.669084,35.2195884 C173.172138,35.2108236 173.658166,35.4029176 174.020209,35.7539032 C174.382252,36.1048887 174.590639,36.5860027 174.599511,37.0913648 L174.599511,64.2141049 C174.577364,65.2638175 173.714072,66.0977114 172.669084,66.0787933 L6.34190472,66.0787933 C5.8360113,66.0878729 5.34761904,65.8927909 4.9860556,65.5372168 C4.62449216,65.1816426 4.41995414,64.6952728 4.41822782,64.1869822 Z" id="Shape" fill="#020202"></path>
                <rect id="Rectangle" fill="#FFFFFF" fill-rule="nonzero" x="147.362637" y="36.7259259" width="25.7142857" height="27.7925926"></rect>
                <path d="M146.373626,36.7259259 L146.373626,64.5185185 L173.076923,64.5185185 L173.076923,36.7259259 L146.373626,36.7259259 Z M172.364835,37.4620649 L172.364835,63.8292247 L147.092432,63.8292247 L147.092432,37.4620649 L172.364835,37.4620649 Z" id="Shape" fill="#020202" fill-rule="nonzero"></path>
                <rect id="Rectangle" fill="#020202" fill-rule="nonzero" x="34.6153846" y="36.7259259" width="25.7142857" height="27.7925926"></rect>
                <path d="M34.6153846,36.7259259 L34.6153846,64.5185185 L61.3186813,64.5185185 L61.3186813,36.7259259 L34.6153846,36.7259259 Z M60.6000564,37.3959499 L60.6000564,63.7948927 L35.3340096,63.7948927 L35.3340096,37.3959499 L60.6000564,37.3959499 Z" id="Shape" fill="#020202" fill-rule="nonzero"></path>
                <rect id="Rectangle" fill="#020202" fill-rule="nonzero" x="63.2967033" y="36.7259259" width="25.7142857" height="27.7925926"></rect>
                <path d="M62.3076923,36.7259259 L62.3076923,64.5185185 L89.010989,64.5185185 L89.010989,36.7259259 L62.3076923,36.7259259 Z M88.2923641,37.3959499 L88.2923641,63.7948927 L63.0263172,63.7948927 L63.0263172,37.3959499 L88.2923641,37.3959499 Z" id="Shape" fill="#020202" fill-rule="nonzero"></path>
                <rect id="Rectangle" fill="#020202" fill-rule="nonzero" x="90.989011" y="36.7259259" width="25.7142857" height="27.7925926"></rect>
                <path d="M90.989011,36.7259259 L90.989011,64.5185185 L117.692308,64.5185185 L117.692308,36.7259259 L90.989011,36.7259259 Z M116.98022,37.3959499 L116.98022,63.7948927 L91.7078167,63.7948927 L91.7078167,37.3959499 L116.98022,37.3959499 Z" id="Shape" fill="#020202" fill-rule="nonzero"></path>
                <rect id="Rectangle" fill="#020202" fill-rule="nonzero" x="119.67033" y="36.7259259" width="25.7142857" height="27.7925926"></rect>
                <path d="M118.681319,36.7259259 L118.681319,64.5185185 L145.384615,64.5185185 L145.384615,36.7259259 L118.681319,36.7259259 Z M144.66599,37.3959499 L144.66599,63.7948927 L119.399944,63.7948927 L119.399944,37.3959499 L144.66599,37.3959499 Z" id="Shape" fill="#020202" fill-rule="nonzero"></path>
                <rect id="Rectangle" fill="#020202" fill-rule="nonzero" x="6.92307692" y="36.7259259" width="25.7142857" height="27.7925926"></rect>
                <path d="M5.93406593,36.7259259 L5.93406593,64.5185185 L32.6373626,64.5185185 L32.6373626,36.7259259 L5.93406593,36.7259259 Z M31.9187377,37.3959499 L31.9187377,63.7948927 L6.65269087,63.7948927 L6.65269087,37.3959499 L31.9187377,37.3959499 Z" id="Shape" fill="#020202" fill-rule="nonzero"></path>
                <path d="M20.136738,60.5481481 C14.7399025,60.5481481 11.8681319,56.326857 11.8681319,50.6222222 C11.8681319,44.42545 15.2828569,40.6962963 20.1563629,40.6962963 C24.6177469,40.6962963 26.3839839,42.7272295 27.6268915,46.3524105 L23.0477584,48.2585765 C22.3935965,46.4633147 21.7786843,45.3334782 20.1236548,45.3334782 C18.0172535,45.3334782 17.1079685,47.5654252 17.1079685,50.6222222 C17.1079685,53.568115 17.991087,55.9109663 20.1694461,55.9109663 C21.7525178,55.9109663 22.4263046,55.0029381 23.4402555,53.1799503 L27.6923077,55.5851852 C26.4624834,58.1013242 24.4411232,60.5481481 20.136738,60.5481481 Z" id="Path" fill="#FFFFFF" fill-rule="nonzero"></path>
                <path d="M49.4920092,52.0798131 L46.3949272,52.0798131 L46.7382993,50.8429176 C47.411578,48.45068 47.7010879,47.4040761 47.9434682,46.1331999 C48.1791158,47.4040761 48.4753584,48.4234955 49.1419043,50.8429176 L49.4920092,52.0798131 Z M57.3626374,59.5555556 L50.5827208,40.6962963 L45.3513452,40.6962963 L38.5714286,59.5555556 L44.1259779,59.5555556 L45.1628271,56.218656 L50.7712388,56.218656 L51.7811569,59.5555556 L57.3626374,59.5555556 Z" id="Shape" fill="#FFFFFF" fill-rule="nonzero"></path>
                <path d="M78.6072583,47.9503535 C78.6072583,49.3115415 77.942377,50.0601949 76.2868224,50.0601949 L73.27491,50.0601949 L73.27491,45.9221835 L76.3533106,45.9221835 C77.975621,45.9221835 78.6072583,46.76612 78.6072583,47.9503535 Z M84.0659341,60.5481481 L80.3758426,53.3406579 C82.3704867,52.4014382 83.7002493,50.6182819 83.7002493,47.8142347 C83.7002493,43.3359263 80.827962,41.6888889 76.4995844,41.6888889 L68.2417582,41.6888889 L68.2417582,60.5481481 L73.27491,60.5481481 L73.27491,54.1709825 L75.3360421,54.1709825 L78.3479546,60.5481481 L84.0659341,60.5481481 Z" id="Shape" fill="#FFFFFF" fill-rule="nonzero"></path>
                <polygon id="Path" fill="#FFFFFF" fill-rule="nonzero" points="102.081668 46.1267614 102.081668 48.7568635 107.934815 48.7568635 107.934815 53.1743477 102.081668 53.1743477 102.081668 60.5481481 96.9230769 60.5481481 96.9230769 41.6888889 111.758242 41.6888889 111.758242 46.1267614"></polygon>
                <path d="M133.552299,53.0777898 L130.452996,53.0777898 L130.803352,51.841785 C131.477114,49.4512704 131.760094,48.4054202 132.002648,47.1354593 C132.245202,48.4054202 132.541657,49.4173142 133.208681,51.841785 L133.552299,53.0777898 Z M141.428571,60.5481481 L134.664006,41.6888889 L129.422141,41.6888889 L122.637363,60.5481481 L128.195895,60.5481481 L129.213275,57.2136518 L134.818971,57.2136518 L135.836351,60.5481481 L141.428571,60.5481481 Z" id="Shape" fill="#FFFFFF" fill-rule="nonzero"></path>
                <path d="M162.413964,64.5185185 L161.604396,63.233587 C160.893555,62.0574328 160.176132,60.792897 159.695656,59.7799087 C159.113972,60.9691345 158.465656,62.1223174 157.754008,63.233587 L156.858875,64.5185185 L150.658763,64.5185185 L156.668001,55.9183156 L150.32967,46.6518519 L156.753565,46.6518519 L157.865899,48.4738711 C158.572993,49.5641828 159.212707,50.6995398 159.781221,51.8731608 C160.371827,50.7065665 161.019892,49.5719837 161.722869,48.4738711 L162.841785,46.6518519 L169.120879,46.6518519 L162.835203,55.8095383 L168.758877,64.5185185 L162.413964,64.5185185 Z" id="Path" fill="#020202" fill-rule="nonzero"></path>
                <path d="M175.054945,96.7121716 C175.036471,98.1345967 173.859365,99.2738619 172.423483,99.2592593 L6.59423651,99.2592593 C5.90345206,99.2679395 5.23739801,99.0045951 4.74262827,98.5269522 C4.24785854,98.0493094 3.96491118,97.3965028 3.95604396,96.7121716 L3.95604396,70.0433839 C3.96491118,69.3590527 4.24785854,68.7062462 4.74262827,68.2286033 C5.23739801,67.7509605 5.90345206,67.4876161 6.59423651,67.4962963 L172.423483,67.4962963 C173.859365,67.4816937 175.036471,68.6209588 175.054945,70.0433839 L175.054945,96.7121716 Z" id="Path" fill="#FFFFFF"></path>
                <path d="M6.34216797,66.5039419 C5.45659225,66.4933435 4.60309553,66.8367391 3.96992622,67.4586384 C3.33675691,68.0805377 2.97593108,68.9298505 2.96703297,69.8192511 L2.96703297,96.9363044 C2.97593108,97.8257051 3.33675691,98.6750179 3.96992622,99.2969172 C4.60309553,99.9188165 5.45659225,100.262212 6.34216797,100.251614 L172.668821,100.251614 C174.50424,100.251614 176.003577,98.7791606 176.043956,96.9363044 L176.043956,69.8192511 C176.003577,67.976395 174.50424,66.5039419 172.668821,66.5039419 L6.34216797,66.5039419 Z M4.40484048,96.9363044 L4.40484048,69.8192511 C4.41369831,69.3127968 4.62303262,68.8307387 4.98657206,68.4796313 C5.35011151,68.1285238 5.83791849,67.9372807 6.34216797,67.9481744 L172.668821,67.9481744 C173.713858,67.9330688 174.574159,68.7697813 174.592648,69.8192511 L174.592648,96.9363044 C174.574159,97.9857742 173.713858,98.8224868 172.668821,98.8073811 L6.34216797,98.8073811 C5.83791849,98.8182749 5.35011151,98.6270318 4.98657206,98.2759243 C4.62303262,97.9248168 4.41369831,97.4427588 4.40484048,96.9363044 Z" id="Shape" fill="#020202"></path>
                <rect id="Rectangle" fill="#FFFFFF" fill-rule="nonzero" x="6.92307692" y="68.4888889" width="25.7142857" height="27.7925926"></rect>
                <path d="M5.93406593,68.4888889 L5.93406593,96.2814815 L32.6373626,96.2814815 L32.6373626,68.4888889 L5.93406593,68.4888889 Z M31.9252747,69.198772 L31.9252747,95.6117805 L6.65287166,95.6117805 L6.65287166,69.22556 L31.9252747,69.198772 Z" id="Shape" fill="#020202" fill-rule="nonzero"></path>
                <rect id="Rectangle" fill="#020202" fill-rule="nonzero" x="34.6153846" y="69.4814815" width="25.7142857" height="27.7925926"></rect>
                <path d="M34.6153846,69.4814815 L34.6153846,97.2740741 L61.3186813,97.2740741 L61.3186813,69.4814815 L34.6153846,69.4814815 Z M60.6065934,70.1973716 L60.6065934,96.558184 L35.3274725,96.558184 L35.3274725,70.1973716 L60.6065934,70.1973716 Z" id="Shape" fill="#020202" fill-rule="nonzero"></path>
                <rect id="Rectangle" fill="#020202" fill-rule="nonzero" x="63.2967033" y="69.4814815" width="25.7142857" height="27.7925926"></rect>
                <path d="M62.3076923,69.4814815 L62.3076923,97.2740741 L89.010989,97.2740741 L89.010989,69.4814815 L62.3076923,69.4814815 Z M88.2921833,70.1973716 L88.2921833,96.558184 L63.0197802,96.558184 L63.0197802,70.1973716 L88.2921833,70.1973716 Z" id="Shape" fill="#020202" fill-rule="nonzero"></path>
                <rect id="Rectangle" fill="#020202" fill-rule="nonzero" x="90.989011" y="69.4814815" width="25.7142857" height="27.7925926"></rect>
                <path d="M90.989011,69.4814815 L90.989011,97.2740741 L117.692308,97.2740741 L117.692308,69.4814815 L90.989011,69.4814815 Z M116.960435,70.1973716 L116.960435,96.558184 L91.7007408,96.558184 L91.7007408,70.1973716 L116.960435,70.1973716 Z" id="Shape" fill="#020202" fill-rule="nonzero"></path>
                <rect id="Rectangle" fill="#020202" fill-rule="nonzero" x="119.67033" y="69.4814815" width="25.7142857" height="27.7925926"></rect>
                <path d="M118.681319,69.4814815 L118.681319,97.2740741 L145.384615,97.2740741 L145.384615,69.4814815 L118.681319,69.4814815 Z M144.66581,70.1973716 L144.66581,96.558184 L119.3531,96.558184 L119.3531,70.1973716 L144.66581,70.1973716 Z" id="Shape" fill="#020202" fill-rule="nonzero"></path>
                <rect id="Rectangle" fill="#020202" fill-rule="nonzero" x="147.362637" y="69.4814815" width="25.7142857" height="27.7925926"></rect>
                <path d="M147.362637,69.4814815 L147.362637,97.2740741 L174.065934,97.2740741 L174.065934,69.4814815 L147.362637,69.4814815 Z M173.347309,70.1973716 L173.347309,96.558184 L148.081262,96.558184 L148.081262,70.1973716 L173.347309,70.1973716 Z" id="Shape" fill="#020202" fill-rule="nonzero"></path>
                <path d="M47.970357,74.4444444 C53.0096594,74.4444444 56.3736264,78.1709402 56.3736264,83.3811966 C56.3736264,88.591453 53.0096594,92.3111111 47.970357,92.3111111 C42.9310547,92.3111111 39.5604396,88.5846154 39.5604396,83.374359 C39.5604396,78.1641026 42.9310547,74.4444444 47.970357,74.4444444 Z M47.970357,88.0581197 C49.2999883,88.0581197 51.2944351,87.1760684 51.2944351,83.3811966 C51.2944351,79.5863248 49.2999883,78.6974359 47.970357,78.6974359 C46.6407258,78.6974359 44.646279,79.5794872 44.646279,83.3811966 C44.646279,87.182906 46.6806148,88.0581197 47.970357,88.0581197 Z" id="Shape" fill="#FFFFFF" fill-rule="nonzero"></path>
                <polygon id="Path" fill="#FFFFFF" fill-rule="nonzero" points="82.4095417 92.3111111 77.4162423 92.3111111 75.6197113 82.0326573 75.573477 82.0326573 73.8231803 92.3111111 68.8100662 92.3111111 64.2857143 75.437037 69.318643 75.437037 71.3529502 85.8561082 71.3925795 85.8561082 73.3740476 75.437037 77.8983995 75.437037 79.8798675 85.9967255 79.9327067 85.9967255 82.0066432 75.437037 87.032967 75.437037"></polygon>
                <polygon id="Path" fill="#FFFFFF" fill-rule="nonzero" points="95.9340659 75.437037 101.123106 75.437037 105.920027 84.4633275 105.97231 84.4633275 105.97231 75.437037 110.769231 75.437037 110.769231 92.3111111 105.828533 92.3111111 100.776734 83.0906349 100.730987 83.0906349 100.730987 92.3111111 95.9340659 92.3111111"></polygon>
                <polygon id="Path" fill="#FFFFFF" fill-rule="nonzero" points="124.615385 74.4444444 139.184295 74.4444444 139.184295 79.0460453 130.036057 79.0460453 130.036057 81.2672691 138.344568 81.2672691 138.344568 85.5159652 130.036057 85.5159652 130.036057 87.7371891 139.450549 87.7371891 139.450549 92.3111111 124.615385 92.3111111"></polygon>
                <path d="M152.307692,75.437037 L162.139995,75.437037 C165.075611,75.437037 167.61579,77.0697943 167.61579,80.2610926 C167.61579,82.0085477 166.818214,83.8504598 165.10242,84.4846713 C166.509907,85.0311727 167.381208,86.5897137 167.568873,88.6947562 C167.635897,89.5246287 167.662706,91.5284671 168.131868,92.3111111 L162.96438,92.3111111 C162.727844,91.4638155 162.586214,90.5925407 162.542134,89.7135427 C162.401385,88.1077732 162.260636,86.4277874 160.216429,86.4277874 L157.468478,86.4277874 L157.468478,92.3111111 L152.307692,92.3111111 L152.307692,75.437037 Z M157.468478,82.8114325 L160.149406,82.8114325 C161.11454,82.8114325 162.428194,82.6427592 162.428194,81.1314467 C162.428194,80.0654316 161.83839,79.4514609 159.867908,79.4514609 L157.448371,79.4514609 L157.468478,82.8114325 Z" id="Shape" fill="#FFFFFF" fill-rule="nonzero"></path>
                <path d="M13.8461538,92.3111111 L13.8461538,90.1339861 L17.9545894,90.1339861 L17.9545894,79.5230773 L13.8461538,79.5230773 L13.8461538,76.2058806 C14.4462216,76.20504 15.0456705,76.1660482 15.6411014,76.0891263 C16.1329853,76.0363233 16.6133889,75.9018127 17.0637635,75.6907879 C17.4591583,75.4987652 17.7968543,75.1997349 18.0410128,74.8254323 C18.2893448,74.4121314 18.426994,73.9381204 18.43989,73.4518519 L22.7145244,73.4518519 L22.7145244,90.1202503 L26.7032967,90.1202503 L26.7032967,92.2561679" id="Path" fill="#020202" fill-rule="nonzero"></path>
                <polyline id="Path" fill="#020202" fill-rule="nonzero" points="13.8461538 93.3037037 13.8461538 91.3185185 26.7032967 91.3185185 26.7032967 93.2661292"></polyline>
                <path d="M141.989135,106.208999 C143.346424,106.245391 144.420524,107.373309 144.395164,108.735582 C144.369804,110.097855 143.254473,111.18473 141.896777,111.170227 C140.539081,111.155724 139.447059,110.045269 139.450603,108.682763 C139.446172,108.012434 139.714641,107.369344 140.193872,106.902339 C140.673103,106.435335 141.321553,106.1849 141.989135,106.208999 Z M141.989135,110.626435 C142.781357,110.659455 143.51419,110.206408 143.841114,109.481517 C144.168039,108.756627 144.023548,107.905143 143.475964,107.329687 C142.928379,106.754232 142.087424,106.570113 141.350742,106.86439 C140.61406,107.158668 140.129264,107.872376 140.125589,108.668039 C140.10571,109.177996 140.292762,109.674244 140.643984,110.043343 C140.995207,110.412442 141.480575,110.622838 141.989135,110.626435 L141.989135,110.626435 Z M141.006004,107.276546 L142.047829,107.276546 C142.744825,107.276546 143.133675,107.497418 143.133675,108.101134 C143.149311,108.300795 143.077049,108.497316 142.935925,108.638933 C142.7948,108.78055 142.598962,108.853064 142.399996,108.837374 L143.133675,110.052169 L142.554068,110.052169 L141.879083,108.866823 L141.54159,108.866823 L141.54159,110.052169 L140.991331,110.052169 L141.006004,107.276546 Z M141.556264,108.432442 L142.047829,108.432442 C142.363312,108.432442 142.590752,108.388268 142.590752,108.049597 C142.590752,107.710927 142.27527,107.703565 142.025819,107.703565 L141.563601,107.703565 L141.556264,108.432442 Z" id="Shape" fill="#221F1F" fill-rule="nonzero"></path>
            </g>
        </g>
    </g>
</svg>