<?xml version="1.0" encoding="UTF-8"?>
<svg width="70px" height="136px" viewBox="0 0 70 136" version="1.1" xmlns="http://www.w3.org/2000/svg" xmlns:xlink="http://www.w3.org/1999/xlink">
    <!-- Generator: sketchtool 51.3 (57544) - http://www.bohemiancoding.com/sketch -->
    <title>F86D50AD-96F1-4A8B-9E57-316CA6DC1651</title>
    <desc>Created with sketchtool.</desc>
    <defs>
        <path d="M34.9929648,105.962909 C31.4752353,105.957819 27.9665241,105.5876 24.5175887,104.857608 C22.4768095,104.433095 21.0042837,102.54814 21.000001,100.354804 L21.000001,69.7327664 C20.9990318,68.5533522 21.7127439,67.5051403 22.7728652,67.1290031 C26.7150569,65.7270565 30.846677,65.0080676 35.0070352,65 C39.1645964,65.0216185 43.2913939,65.7531208 47.2271348,67.1660937 C48.2872561,67.5422309 49.0009682,68.5904428 48.999999,69.7698571 L48.999999,100.384476 C49.0012454,102.579907 47.526199,104.468089 45.4824113,104.887281 C42.0246759,105.623 38.5063237,105.995726 34.9788945,106 L34.9929648,105.962909 Z" id="path-1"></path>
        <path d="M35.0581332,105.482725 C31.6245779,105.477757 28.1998251,105.116397 24.8334178,104.403872 C22.8414716,103.989518 21.4041812,102.149667 21.400001,100.008814 L21.400001,70.1195181 C21.3990549,68.9683256 22.0956889,67.9451959 23.1304431,67.5780591 C26.9783038,66.2096591 31.0110601,65.5078746 35.0718668,65.5 C39.1299436,65.5211012 43.1579927,66.2350997 46.9995569,67.6142622 C48.0343111,67.981399 48.7309451,69.0045287 48.729999,70.1557212 L48.729999,100.037776 C48.7312156,102.180673 47.2914649,104.023674 45.2965822,104.432835 C41.9215854,105.150949 38.4874223,105.514757 35.0443995,105.518929 L35.0581332,105.482725 Z" id="path-3"></path>
        <rect id="path-5" x="0" y="0" width="129" height="198"></rect>
    </defs>
    <g id="POI" stroke="none" stroke-width="1" fill="none" fill-rule="evenodd">
        <g id="SUV_RoofDamage">
            <g id="SUV_Roof-Damage">
                <path d="M53.45,134 C41.0058764,135.39924 28.4441236,135.39924 16,134 C11.15,133.45 7.51,129.32 7.51,122.8 C5.68,101.5 6.64,57.17 7.51,12.38 C7.5,8 11.9,2.84 17.87,1.88 C29.0501504,0.0650047987 40.4498496,0.0650047987 51.63,1.88 C57.58,2.81 62,8 62,12.38 C63,57.17 64,101.52 62,122.83 C62,129.35 58.3,133.48 53.45,134 Z" id="Shape" stroke="#000000" fill="#FFFFFF" fill-rule="nonzero"></path>
                <path d="M9.14,124.47 L9.14,47.29 C8.85321664,36.748865 9.14030781,26.1999335 10,15.69 C10,12.16 13.69,7.63 19,6.77 C24.2862761,5.87398331 29.6383253,5.42240416 35,5.42 C40.2110708,5.42567127 45.4125366,5.86721049 50.55,6.74 C55.82,7.6 59.49,12.12 59.49,15.65 C60.49,23.98 60.62,37.41 60.31,47.29 L60.31,112.4 L60.31,124.47 C60.31,132 9.14,132 9.14,124.47 Z" id="Shape" stroke="#000000" fill="#FFFFFF" fill-rule="nonzero"></path>
                <path d="M12.13,46 C11.5867726,46.0056141 11.1041984,45.6541896 10.942815,45.1354575 C10.7814317,44.6167254 10.9794656,44.0535562 11.43,43.75 C23.43,35.53 45.43,35.45 57.73,43.58 C58.1433694,43.9968324 58.2045587,44.6476848 57.8761222,45.1342575 C57.5476856,45.6208301 56.9211776,45.8074868 56.38,45.58 C45,38.13 23.87,38.21 12.82,45.8 C12.6163774,45.9367617 12.3751967,46.0066691 12.13,46 Z" id="Shape" stroke="#000000" fill="#FFFFFF" fill-rule="nonzero"></path>
                <path d="M9.1,47.29 L9.1,123.06 C25.7462451,128.525135 43.7037549,128.525135 60.35,123.06 L60.35,47.29 C49.24,36.19 20.57,35.81 9.1,47.29 Z" id="Shape" stroke="#000000" fill="#FFFFFF" fill-rule="nonzero"></path>
                <path d="M17.3,68 C16.9544172,68.0026948 16.6451873,67.7858322 16.53,67.46 L9.05,46.89 C8.97280384,46.6845492 8.98118991,46.456727 9.07328188,46.2575077 C9.16537385,46.0582883 9.33348456,45.9043011 9.54,45.83 C9.9649657,45.6815859 10.4307773,45.8989647 10.59,46.32 L18.07,66.88 C18.1468961,67.084072 18.1382558,67.3105296 18.0460334,67.5081489 C17.9538111,67.7057683 17.7857987,67.8578523 17.58,67.93 C17.4926448,67.9728107 17.3972243,67.9966658 17.3,68 Z" id="Shape" stroke="#000000" fill="#FFFFFF" fill-rule="nonzero"></path>
                <path d="M52.14,68 C52.0476475,68.0191362 51.9523525,68.0191362 51.86,68 C51.4350113,67.8450649 51.2157604,67.3752416 51.37,66.95 L58.86,46.4 C58.9513007,46.1133134 59.1922734,45.8996515 59.4878282,45.8433271 C59.7833829,45.7870027 60.0860478,45.8970627 60.2763887,46.1300764 C60.4667296,46.3630901 60.5141741,46.6816309 60.4,46.96 L52.91,67.44 C52.8017088,67.7737338 52.4908635,67.9998031 52.14,68 Z" id="Shape" stroke="#000000" fill="#FFFFFF" fill-rule="nonzero"></path>
                <polyline id="Shape" stroke="#000000" fill="#FFFFFF" fill-rule="nonzero" points="60.34 123.06 50.09 105.73 51.84 99.43"></polyline>
                <polyline id="Shape" stroke="#000000" fill="#FFFFFF" fill-rule="nonzero" points="8.89 123.06 19.14 105.73 17.39 99.43"></polyline>
                <path d="M34.8900014,113.22 C29.8897999,113.213138 24.902417,112.714065 20.0000014,111.73 C17.0991794,111.157736 15.006089,108.616724 15.0000014,105.66 L15.0000014,64.38 C14.9986237,62.7900921 16.0131145,61.3770513 17.5200014,60.87 C23.1235458,58.9801076 28.996349,58.0108756 34.9100014,58 C40.8196781,58.0291428 46.6856264,59.0152435 52.2800014,60.92 C53.7868883,61.4270513 54.8013791,62.8400921 54.8000014,64.43 L54.8000014,105.7 C54.801773,108.659548 52.7050998,111.204909 49.8000014,111.77 C44.8850771,112.761785 39.8839904,113.264238 34.8700014,113.27 L34.8900014,113.22 Z" id="Shape" stroke="#000000" fill="#FFFFFF" fill-rule="nonzero"></path>
                <mask id="mask-2" fill="white">
                    <use xlink:href="#path-1"></use>
                </mask>
                <use id="Shape" stroke="#000000" fill-rule="nonzero" xlink:href="#path-1"></use>
                <mask id="mask-4" fill="white">
                    <use xlink:href="#path-3"></use>
                </mask>
                <g id="Roof-Mask" fill-rule="nonzero"></g>
                <g id="CrossHatch-Pattern" mask="url(#mask-4)">
                    <g transform="translate(-4.000000, 0.000000)" id="hatch">
                        <g>
                            <mask id="mask-6" fill="white">
                                <use xlink:href="#path-5"></use>
                            </mask>
                            <g id="Mask"></g>
                            <g mask="url(#mask-6)" fill="#3777BC" fill-rule="nonzero" id="Combined-Shape">
                                <g transform="translate(-23.000000, -35.000000)">
                                    <path d="M18.9972659,3.16894294 L3.1362837,19.0583116 L1.93667241,20.2600698 L4.33589499,22.6635863 L5.53550627,21.461828 L21.3964885,5.5724594 L22.5960998,4.37070117 L20.1968772,1.96718471 L18.9972659,3.16894294 Z M28.3526536,1.20175823 L4.0284192,25.5695258 L2.82880792,26.771284 L5.22803049,29.1748005 L6.42764178,27.9730422 L30.7518762,3.6052747 L31.9514875,2.40351646 L29.5522649,0 L28.3526536,1.20175823 Z M34.0060502,2.33641489 L4.58848548,31.8066283 L3.3888742,33.0083865 L5.78809677,35.411903 L6.98770806,34.2101448 L36.4052728,4.73993136 L37.6048841,3.53817313 L35.2056615,1.13465666 L34.0060502,2.33641489 Z M40.2205589,2.90895523 L4.01075157,39.1835673 L2.81114028,40.3853256 L5.21036285,42.788842 L6.40997414,41.5870838 L42.6197815,5.31247169 L43.8193928,4.11071346 L41.4201702,1.70719699 L40.2205589,2.90895523 Z M41.922206,8.00243389 L6.85137058,43.1360356 L5.6517593,44.3377939 L8.05098187,46.7413103 L9.25059315,45.5395521 L44.3214286,10.4059504 L45.5210399,9.20419212 L43.1218173,6.80067566 L41.922206,8.00243389 Z M50.3995982,6.30804081 L6.85225819,49.9333176 L5.6526469,51.1350758 L8.05186947,53.5385923 L9.25148076,52.3368341 L52.7988208,8.71155727 L53.9984321,7.50979904 L51.5992095,5.10628258 L50.3995982,6.30804081 Z M55.4924053,8.00429027 L6.85225819,56.7314888 L5.6526469,57.933247 L8.05186947,60.3367635 L9.25148076,59.1350052 L57.8916279,10.4078067 L59.0912392,9.2060485 L56.6920166,6.80253204 L55.4924053,8.00429027 Z M62.8520687,7.42962652 L6.85225819,63.5296599 L5.6526469,64.7314182 L8.05186947,67.1349346 L9.25148076,65.9331764 L65.2512912,9.83314298 L66.4509025,8.63138475 L64.0516799,6.22786828 L62.8520687,7.42962652 Z M69.0637406,8.00500874 L6.85225819,70.3278311 L5.6526469,71.5295893 L8.05186947,73.9331058 L9.25148076,72.7313475 L71.4629631,10.4085252 L72.6625744,9.20676697 L70.2633518,6.8032505 L69.0637406,8.00500874 Z M75.849514,8.00526198 L6.85225819,77.1260022 L5.6526469,78.3277605 L8.05186947,80.7312769 L9.25148076,79.5295187 L78.2487365,10.4087784 L79.4483478,9.20702021 L77.0491253,6.80350375 L75.849514,8.00526198 Z M83.1987249,7.44106933 L6.85225819,83.9241734 L5.6526469,85.1259316 L8.05186947,87.5294481 L9.25148076,86.3276899 L85.5979475,9.8445858 L86.7975587,8.64282757 L84.3983362,6.2393111 L83.1987249,7.44106933 Z M90.5521382,6.87266679 L5.72125382,91.8553731 L4.52164253,93.0571313 L6.9208651,95.4606478 L8.12047639,94.2588896 L92.9513607,9.27618326 L94.150972,8.07442503 L91.7517495,5.67090856 L90.5521382,6.87266679 Z M96.7778899,7.43394394 L6.85225819,97.5205157 L5.6526469,98.722274 L8.05186947,101.12579 L9.25148076,99.9240322 L99.1771125,9.8374604 L100.376724,8.63570217 L97.9775012,6.23218571 L96.7778899,7.43394394 Z M103.556803,7.44106933 L6.85225819,104.318687 L5.6526469,105.520445 L8.05186947,107.923962 L9.25148076,106.722203 L105.956026,9.8445858 L107.155637,8.64282757 L104.756415,6.2393111 L103.556803,7.44106933 Z M110.34901,7.43487832 L6.85225819,111.116858 L5.6526469,112.318616 L8.05186947,114.722133 L9.25148076,113.520375 L112.748232,9.83839479 L113.947843,8.63663656 L111.548621,6.23312009 L110.34901,7.43487832 Z M117.135036,7.43487832 L4.58113508,120.190217 L3.38152379,121.391975 L5.78074636,123.795492 L6.98035765,122.593733 L119.534258,9.83839479 L120.73387,8.63663656 L118.334647,6.23312009 L117.135036,7.43487832 Z M125.612817,5.74009601 L2.33061565,129.242935 L1.13100437,130.444694 L3.53022694,132.84821 L4.72983822,131.646452 L128.012039,8.14361247 L129.21165,6.94185424 L126.812428,4.53833778 L125.612817,5.74009601 Z M131.831913,6.30804081 L2.33061565,136.041106 L1.13100437,137.242865 L3.53022694,139.646381 L4.72983822,138.444623 L134.231135,8.71155727 L135.430747,7.50979904 L133.031524,5.10628258 L131.831913,6.30804081 Z M138.636555,6.28939157 L1.19961129,143.972306 L0,145.174064 L2.39922257,147.577581 L3.59883386,146.375823 L141.035777,8.69290803 L142.235389,7.4911498 L139.836166,5.08763334 L138.636555,6.28939157 Z M145.403965,6.30804081 L2.33061565,149.637449 L1.13100437,150.839207 L3.53022694,153.242723 L4.72983822,152.040965 L147.803188,8.71155727 L149.002799,7.50979904 L146.603576,5.10628258 L145.403965,6.30804081 Z M152.189991,6.30804081 L9.11664185,149.637449 L7.91703057,150.839207 L10.3162531,153.242723 L11.5158644,152.040965 L154.589214,8.71155727 L155.788825,7.50979904 L153.389603,5.10628258 L152.189991,6.30804081 Z M158.976017,6.30804081 L9.11664185,156.43562 L7.91703057,157.637378 L10.3162531,160.040895 L11.5158644,158.839136 L161.37524,8.71155727 L162.574851,7.50979904 L160.175629,5.10628258 L158.976017,6.30804081 Z M157.845013,14.2392405 L7.98563749,164.36682 L6.7860262,165.568578 L9.18524877,167.972094 L10.3848601,166.770336 L160.244236,16.642757 L161.443847,15.4409987 L159.044624,13.0374823 L157.845013,14.2392405 Z M164.631039,14.2392405 L5.15541297,174.000281 L3.95580168,175.202039 L6.35502425,177.605555 L7.55463554,176.403797 L167.030262,16.642757 L168.229873,15.4409987 L165.830651,13.0374823 L164.631039,14.2392405 Z M164.631039,21.0374117 L5.15541297,180.798452 L3.95580168,182.00021 L6.35502425,184.403726 L7.55463554,183.201968 L167.030262,23.4409281 L168.229873,22.2391699 L165.830651,19.8356534 L164.631039,21.0374117 Z M164.631039,27.8355828 L2.89346032,189.862624 L1.69384904,191.064382 L4.09307161,193.467898 L5.2926829,192.26614 L167.030262,30.2390993 L168.229873,29.037341 L165.830651,26.6338246 L164.631039,27.8355828 Z M164.631039,34.633754 L6.29042794,193.257748 L5.09081665,194.459506 L7.49003922,196.863022 L8.68965051,195.661264 L167.030262,37.0372704 L168.229873,35.8355122 L165.830651,33.4319957 L164.631039,34.633754 Z M164.631039,41.4319251 L6.28638869,200.059965 L5.0867774,201.261724 L7.48599997,203.66524 L8.68561126,202.463482 L167.030262,43.8354416 L168.229873,42.6336834 L165.830651,40.2301669 L164.631039,41.4319251 Z M164.631039,48.2300963 L5.71586993,207.429676 L4.51625864,208.631435 L6.91548121,211.034951 L8.1150925,209.833193 L167.030262,50.6336128 L168.229873,49.4318545 L165.830651,47.0283381 L164.631039,48.2300963 Z M164.631039,55.0282675 L5.15541297,214.789308 L3.95580168,215.991066 L6.35502425,218.394582 L7.55463554,217.192824 L167.030262,57.4317839 L168.229873,56.2300257 L165.830651,53.8265092 L164.631039,55.0282675 Z M164.631039,61.8264386 L4.59392124,222.149975 L3.39430995,223.351733 L5.79353252,225.75525 L6.99314381,224.553491 L167.030262,64.2299551 L168.229873,63.0281969 L165.830651,60.6246804 L164.631039,61.8264386 Z M155.018557,78.2542954 L3.45398828,230.09012 L2.254377,231.291878 L4.65359957,233.695394 L5.85321086,232.493636 L157.41778,80.6578119 L158.617391,79.4560536 L156.218168,77.0525372 L155.018557,78.2542954 Z M155.583004,84.4870092 L6.28638869,234.050821 L5.0867774,235.252579 L7.48599997,237.656096 L8.68561126,236.454338 L157.982227,86.8905256 L159.181838,85.6887674 L156.782616,83.2852509 L155.583004,84.4870092 Z M155.587457,91.2807201 L11.9308568,235.194422 L10.7312455,236.396181 L13.1304681,238.799697 L14.3300793,237.597939 L157.986679,93.6842366 L159.18629,92.4824783 L156.787068,90.0789619 L155.587457,91.2807201 Z M154.456692,99.2116795 L18.142334,235.77 L16.9427228,236.971758 L19.3419453,239.375274 L20.5415566,238.173516 L156.855915,101.615196 L158.055526,100.413438 L155.656303,98.0099213 L154.456692,99.2116795 Z M156.714009,103.748494 L27.7634691,232.929817 L26.5638578,234.131575 L28.9630804,236.535091 L30.1626917,235.333333 L159.113231,106.152011 L160.312843,104.950252 L157.91362,102.546736 L156.714009,103.748494 Z M158.981044,108.275573 L31.738026,235.746317 L30.5384148,236.948076 L32.9376373,239.351592 L34.1372486,238.149834 L161.380267,110.679089 L162.579878,109.477331 L160.180655,107.073814 L158.981044,108.275573 Z M163.500035,110.546665 L37.391751,236.880645 L36.1921397,238.082404 L38.5913623,240.48592 L39.7909736,239.284162 L165.899257,112.950182 L167.098869,111.748424 L164.699646,109.344907 L163.500035,110.546665 Z M167.469518,113.368249 L36.2607467,244.811845 L35.0611354,246.013603 L37.4603579,248.41712 L38.6599692,247.215361 L169.868741,115.771765 L171.068352,114.570007 L168.66913,112.166491 L167.469518,113.368249 Z M178.778692,108.837007 L36.2607467,251.610016 L35.0611354,252.811774 L37.4603579,255.215291 L38.6599692,254.013533 L181.177914,111.240523 L182.377526,110.038765 L179.978303,107.635248 L178.778692,108.837007 Z M186.120122,108.280608 L36.2607467,258.408187 L35.0611354,259.609946 L37.4603579,262.013462 L38.6599692,260.811704 L188.519345,110.684125 L189.718956,109.482366 L187.319734,107.07885 L186.120122,108.280608 Z M186.120122,115.078779 L36.2607467,265.206359 L35.0611354,266.408117 L37.4603579,268.811633 L38.6599692,267.609875 L188.519345,117.482296 L189.718956,116.280538 L187.319734,113.877021 L186.120122,115.078779 Z M186.120122,121.876951 L36.2607467,272.00453 L35.0611354,273.206288 L37.4603579,275.609804 L38.6599692,274.408046 L188.519345,124.280467 L189.718956,123.078709 L187.319734,120.675192 L186.120122,121.876951 Z M184.989118,129.80815 L35.1297423,279.935729 L33.930131,281.137488 L36.3293536,283.541004 L37.5289649,282.339246 L187.38834,132.211667 L188.587952,131.009908 L186.188729,128.606392 L184.989118,129.80815 Z M186.120122,135.473293 L36.2607467,285.600872 L35.0611354,286.80263 L37.4603579,289.206147 L38.6599692,288.004388 L188.519345,137.876809 L189.718956,136.675051 L187.319734,134.271535 L186.120122,135.473293 Z M186.120122,142.271464 L36.2607467,292.399043 L35.0611354,293.600801 L37.4603579,296.004318 L38.6599692,294.80256 L188.519345,144.67498 L189.718956,143.473222 L187.319734,141.069706 L186.120122,142.271464 Z M186.120122,149.069635 L36.2607467,299.197214 L35.0611354,300.398973 L37.4603579,302.802489 L38.6599692,301.600731 L188.519345,151.473152 L189.718956,150.271393 L187.319734,147.867877 L186.120122,149.069635 Z M184.989118,157.000835 L35.1297423,307.128414 L33.930131,308.330172 L36.3293536,310.733689 L37.5289649,309.53193 L187.38834,159.404351 L188.587952,158.202593 L186.188729,155.799077 L184.989118,157.000835 Z M192.906148,155.867806 L43.0467729,305.995385 L41.8471616,307.197144 L44.2463841,309.60066 L45.4459954,308.398902 L195.305371,158.271323 L196.504982,157.069565 L194.10576,154.666048 L192.906148,155.867806 Z M196.299162,159.266892 L46.439786,309.394471 L45.2401747,310.596229 L47.6393972,312.999746 L48.8390085,311.797988 L198.698384,161.670408 L199.897995,160.46865 L197.498773,158.065134 L196.299162,159.266892 Z M201.954183,167.198092 L52.0948078,317.325671 L50.8951965,318.527429 L53.2944191,320.930945 L54.4940304,319.729187 L204.353406,169.601608 L205.553017,168.39985 L203.153795,165.996333 L201.954183,167.198092 Z M203.085188,172.863234 L53.2258122,322.990813 L52.0262009,324.192572 L54.4254234,326.596088 L55.6250347,325.39433 L205.48441,175.266751 L206.684022,174.064992 L204.284799,171.661476 L203.085188,172.863234 Z M203.085188,180.220265 L53.2258122,330.347845 L52.0262009,331.549603 L54.4254234,333.953119 L55.6250347,332.751361 L205.48441,182.623782 L206.684022,181.422024 L204.284799,179.018507 L203.085188,180.220265 Z M207.609205,154.734778 L57.7498296,304.862357 L56.5502183,306.064115 L58.9494409,308.467632 L60.1490522,307.265873 L210.008428,157.138294 L211.208039,155.936536 L208.808817,153.53302 L207.609205,154.734778 Z M201.981218,188.151465 L65.6668602,324.709785 L64.4672489,325.911543 L66.8664715,328.31506 L68.0660828,327.113302 L204.380441,190.554982 L205.580052,189.353223 L203.180829,186.949707 L201.981218,188.151465 Z M204.238535,192.68828 L75.2879952,321.869602 L74.088384,323.071361 L76.4876065,325.474877 L77.6872178,324.273119 L206.637757,195.091796 L207.837369,193.890038 L205.438146,191.486522 L204.238535,192.68828 Z M206.50557,197.215358 L79.2625522,324.686103 L78.0629409,325.887861 L80.4621635,328.291378 L81.6617748,327.089619 L208.904793,199.618875 L210.104404,198.417117 L207.705181,196.0136 L206.50557,197.215358 Z M211.024561,199.486451 L84.9162772,325.820431 L83.7166659,327.022189 L86.1158885,329.425706 L87.3154997,328.223947 L213.423784,201.889967 L214.623395,200.688209 L212.224172,198.284693 L211.024561,199.486451 Z M214.994045,202.308034 L83.7852728,333.751631 L82.5856615,334.953389 L84.9848841,337.356905 L86.1844954,336.155147 L217.393267,204.711551 L218.592878,203.509793 L216.193656,201.106276 L214.994045,202.308034 Z M226.303218,197.776792 L83.7852728,340.549802 L82.5856615,341.75156 L84.9848841,344.155077 L86.1844954,342.953318 L228.70244,200.180309 L229.902052,198.97855 L227.502829,196.575034 L226.303218,197.776792 Z M233.644648,197.220394 L83.7852728,347.347973 L82.5856615,348.549731 L84.9848841,350.953248 L86.1844954,349.751489 L236.043871,199.62391 L237.243482,198.422152 L234.84426,196.018636 L233.644648,197.220394 Z M233.644648,204.018565 L83.7852728,354.146144 L82.5856615,355.347902 L84.9848841,357.751419 L86.1844954,356.549661 L236.043871,206.422081 L237.243482,205.220323 L234.84426,202.816807 L233.644648,204.018565 Z M233.644648,210.816736 L83.7852728,360.944315 L82.5856615,362.146074 L84.9848841,364.54959 L86.1844954,363.347832 L236.043871,213.220253 L237.243482,212.018494 L234.84426,209.614978 L233.644648,210.816736 Z M232.513644,218.747936 L82.6542684,368.875515 L81.4546572,370.077273 L83.8538797,372.48079 L85.053491,371.279031 L234.912867,221.151452 L236.112478,219.949694 L233.713255,217.546178 L232.513644,218.747936 Z M233.644648,224.413078 L83.7852728,374.540658 L82.5856615,375.742416 L84.9848841,378.145932 L86.1844954,376.944174 L236.043871,226.816595 L237.243482,225.614837 L234.84426,223.21132 L233.644648,224.413078 Z M233.644648,231.21125 L83.7852728,381.338829 L82.5856615,382.540587 L84.9848841,384.944103 L86.1844954,383.742345 L236.043871,233.614766 L237.243482,232.413008 L234.84426,230.009491 L233.644648,231.21125 Z M233.644648,238.009421 L83.7852728,388.137 L82.5856615,389.338758 L84.9848841,391.742275 L86.1844954,390.540516 L236.043871,240.412937 L237.243482,239.211179 L234.84426,236.807663 L233.644648,238.009421 Z M232.513644,245.94062 L82.6542684,396.0682 L81.4546572,397.269958 L83.8538797,399.673474 L85.053491,398.471716 L234.912867,248.344137 L236.112478,247.142379 L233.713255,244.738862 L232.513644,245.94062 Z M240.430675,244.807592 L90.571299,394.935171 L89.3716877,396.136929 L91.7709103,398.540446 L92.9705216,397.338688 L242.829897,247.211108 L244.029508,246.00935 L241.630286,243.605834 L240.430675,244.807592 Z M243.823688,248.206678 L93.9643121,398.334257 L92.7647008,399.536015 L95.1639234,401.939531 L96.3635347,400.737773 L246.22291,250.610194 L247.422522,249.408436 L245.023299,247.004919 L243.823688,248.206678 Z M249.47871,256.137877 L99.6193339,406.265456 L98.4197227,407.467215 L100.818945,409.870731 L102.018557,408.668973 L251.877932,258.541394 L253.077543,257.339635 L250.678321,254.936119 L249.47871,256.137877 Z M250.609714,261.80302 L100.750338,411.930599 L99.550727,413.132357 L101.94995,415.535874 L103.149561,414.334115 L253.008936,264.206536 L254.208548,263.004778 L251.809325,260.601262 L250.609714,261.80302 Z M250.609714,269.160051 L100.750338,419.28763 L99.550727,420.489388 L101.94995,422.892905 L103.149561,421.691147 L253.008936,271.563568 L254.208548,270.361809 L251.809325,267.958293 L250.609714,269.160051 Z M255.133731,243.674563 L105.274356,393.802143 L104.074744,395.003901 L106.473967,397.407417 L107.673578,396.205659 L257.532954,246.07808 L258.732565,244.876322 L256.333343,242.472805 L255.133731,243.674563 Z"></path>
                                </g>
                            </g>
                        </g>
                    </g>
                </g>
                <path d="M8.32,51.18 L0.499987941,52 L0.5,51.58 C0.495167232,49.6635136 1.9434783,48.0552398 3.85,47.86 L5.93,47.64 C6.5408436,47.5777503 7.14946604,47.7771927 7.60500011,48.1888888 C8.06053417,48.6005848 8.32033414,49.1859928 8.32,49.8 L8.32,51.18 Z" id="Shape" stroke="#000000" fill="#FFFFFF" fill-rule="nonzero"></path>
                <path d="M61.24,51.18 L69.0600149,52 L69.06,51.58 C69.0653561,49.6669648 67.6225577,48.0600157 65.72,47.86 L63.64,47.64 C63.0282284,47.5779396 62.4186988,47.7771336 61.9616388,48.1884876 C61.5045789,48.5998416 61.2425016,49.1850938 61.24,49.8 L61.24,51.18 Z" id="Shape" stroke="#000000" fill="#FFFFFF" fill-rule="nonzero"></path>
                <path d="M11.77,127.45 L7.72,125.41" id="Shape" stroke="#000000" fill="#FFFFFF" fill-rule="nonzero"></path>
            </g>
        </g>
    </g>
</svg>