<svg width="48" height="48" viewBox="0 0 48 48" fill="none" xmlns="http://www.w3.org/2000/svg">
<path fill-rule="evenodd" clip-rule="evenodd" d="M34.5408 12.9851C34.8736 12.6533 34.8736 12.1146 34.5408 11.7832C30.3934 7.63588 25.0737 5.08683 19.946 4.78855C19.482 4.76183 19.0749 5.1189 19.0482 5.5877C19.0205 6.05651 19.3785 6.45876 19.8468 6.48597C24.5646 6.75996 29.4815 9.12877 33.3389 12.9851C33.5046 13.1513 33.7227 13.2343 33.9404 13.2343C34.158 13.2343 34.3752 13.1513 34.5408 12.9851ZM47.0059 35.5131C46.3491 37.5428 46.1324 39.5565 46.436 40.9435C46.8917 43.03 46.6804 44.6856 45.6879 45.6777C44.7085 46.6575 43.0805 46.8757 41.0294 46.4414C39.9237 46.2057 37.3945 46.3738 35.718 46.9383C27.4022 49.7366 16.7779 46.9631 8.90725 39.0925C1.03607 31.2219 -1.73648 20.5978 1.06181 12.2822C1.62682 10.6061 1.79394 8.07699 1.55929 6.9708C1.12449 4.9202 1.34213 3.29225 2.32251 2.31238C3.31503 1.32035 4.96972 1.10903 7.05726 1.5652C8.44427 1.86835 10.458 1.65216 12.4867 0.994376C20.7723 -1.69118 31.2878 1.10125 39.0929 8.90773C46.8985 16.7137 49.691 27.2281 47.0059 35.5131Z" fill="#FBC02D"/>
</svg>
