<?xml version="1.0" encoding="UTF-8"?>
<svg width="70px" height="136px" viewBox="0 0 70 136" version="1.1" xmlns="http://www.w3.org/2000/svg" xmlns:xlink="http://www.w3.org/1999/xlink">
    <!-- Generator: sketchtool 50.2 (55047) - http://www.bohemiancoding.com/sketch -->
    <title>6F84B962-E976-4262-A44C-D99E751BEE14</title>
    <desc>Created with sketchtool.</desc>
    <defs></defs>
    <g id="Page-1" stroke="none" stroke-width="1" fill="none" fill-rule="evenodd">
        <g id="SUV" fill="#FFFFFF" fill-rule="nonzero" stroke="#000000">
            <g id="Shape">
                <path d="M53.45,134 C41.0058764,135.39924 28.4441236,135.39924 16,134 C11.15,133.45 7.51,129.32 7.51,122.8 C5.68,101.5 6.64,57.17 7.51,12.38 C7.5,8 11.9,2.84 17.87,1.88 C29.0501504,0.0650047987 40.4498496,0.0650047987 51.63,1.88 C57.58,2.81 62,8 62,12.38 C63,57.17 64,101.52 62,122.83 C62,129.35 58.3,133.48 53.45,134 Z"></path>
                <path d="M9.14,124.47 L9.14,47.29 C8.85321664,36.748865 9.14030781,26.1999335 10,15.69 C10,12.16 13.69,7.63 19,6.77 C24.2862761,5.87398331 29.6383253,5.42240416 35,5.42 C40.2110708,5.42567127 45.4125366,5.86721049 50.55,6.74 C55.82,7.6 59.49,12.12 59.49,15.65 C60.49,23.98 60.62,37.41 60.31,47.29 L60.31,112.4 L60.31,124.47 C60.31,132 9.14,132 9.14,124.47 Z"></path>
                <path d="M12.13,46 C11.5867726,46.0056141 11.1041984,45.6541896 10.942815,45.1354575 C10.7814317,44.6167254 10.9794656,44.0535562 11.43,43.75 C23.43,35.53 45.43,35.45 57.73,43.58 C58.1433694,43.9968324 58.2045587,44.6476848 57.8761222,45.1342575 C57.5476856,45.6208301 56.9211776,45.8074868 56.38,45.58 C45,38.13 23.87,38.21 12.82,45.8 C12.6163774,45.9367617 12.3751967,46.0066691 12.13,46 Z"></path>
                <path d="M9.1,47.29 L9.1,123.06 C25.7462451,128.525135 43.7037549,128.525135 60.35,123.06 L60.35,47.29 C49.24,36.19 20.57,35.81 9.1,47.29 Z"></path>
                <path d="M17.3,68 C16.9544172,68.0026948 16.6451873,67.7858322 16.53,67.46 L9.05,46.89 C8.97280384,46.6845492 8.98118991,46.456727 9.07328188,46.2575077 C9.16537385,46.0582883 9.33348456,45.9043011 9.54,45.83 C9.9649657,45.6815859 10.4307773,45.8989647 10.59,46.32 L18.07,66.88 C18.1468961,67.084072 18.1382558,67.3105296 18.0460334,67.5081489 C17.9538111,67.7057683 17.7857987,67.8578523 17.58,67.93 C17.4926448,67.9728107 17.3972243,67.9966658 17.3,68 Z"></path>
                <path d="M52.14,68 C52.0476475,68.0191362 51.9523525,68.0191362 51.86,68 C51.4350113,67.8450649 51.2157604,67.3752416 51.37,66.95 L58.86,46.4 C58.9513007,46.1133134 59.1922734,45.8996515 59.4878282,45.8433271 C59.7833829,45.7870027 60.0860478,45.8970627 60.2763887,46.1300764 C60.4667296,46.3630901 60.5141741,46.6816309 60.4,46.96 L52.91,67.44 C52.8017088,67.7737338 52.4908635,67.9998031 52.14,68 Z"></path>
                <polyline points="60.34 123.06 50.09 105.73 51.84 99.43"></polyline>
                <polyline points="8.89 123.06 19.14 105.73 17.39 99.43"></polyline>
                <path d="M34.7,113.22 C29.6997985,113.213138 24.7124156,112.714065 19.81,111.73 C16.909178,111.157736 14.8160876,108.616724 14.81,105.66 L14.81,64.38 C14.8086223,62.7900921 15.8231131,61.3770513 17.33,60.87 C22.9335444,58.9801076 28.8063476,58.0108756 34.72,58 C40.6296767,58.0291428 46.495625,59.0152435 52.09,60.92 C53.5968869,61.4270513 54.6113777,62.8400921 54.61,64.43 L54.61,105.7 C54.6117716,108.659548 52.5150984,111.204909 49.61,111.77 C44.6950757,112.761785 39.693989,113.264238 34.68,113.27 L34.7,113.22 Z"></path>
                <path d="M8.32,51.18 L0.499987941,52 L0.5,51.58 C0.495167232,49.6635136 1.9434783,48.0552398 3.85,47.86 L5.93,47.64 C6.5408436,47.5777503 7.14946604,47.7771927 7.60500011,48.1888888 C8.06053417,48.6005848 8.32033414,49.1859928 8.32,49.8 L8.32,51.18 Z"></path>
                <path d="M61.24,51.18 L69.0600149,52 L69.06,51.58 C69.0653561,49.6669648 67.6225577,48.0600157 65.72,47.86 L63.64,47.64 C63.0282284,47.5779396 62.4186988,47.7771336 61.9616388,48.1884876 C61.5045789,48.5998416 61.2425016,49.1850938 61.24,49.8 L61.24,51.18 Z"></path>
                <path d="M11.77,127.45 L7.72,125.41"></path>
            </g>
        </g>
    </g>
</svg>